<svg width="42" height="42" viewBox="0 0 42 42" fill="none" xmlns="http://www.w3.org/2000/svg">
<path fill-rule="evenodd" clip-rule="evenodd" d="M20.6471 0C9.243 0 0 9.24472 0 20.6471C0 32.0494 9.243 41.2941 20.6471 41.2941C32.0494 41.2941 41.2941 32.0494 41.2941 20.6471C41.2941 9.24472 32.0494 0 20.6471 0ZM20.8879 32.7221C14.2327 32.7221 8.84382 27.3195 8.84382 20.6471C8.84382 13.9746 14.2327 8.57197 20.8879 8.57197C24.1399 8.57197 26.8584 9.77122 28.9437 11.7189L25.5473 15.1222V15.1154C24.2827 13.9075 22.6791 13.2881 20.8879 13.2881C16.9134 13.2881 13.6838 16.6536 13.6838 20.6402C13.6838 24.6233 16.9134 27.9991 20.8879 27.9991C24.4943 27.9991 26.9479 25.931 27.4537 23.092H20.8879V18.3828H32.218C32.3694 19.1914 32.4503 20.0345 32.4503 20.9189C32.4503 27.8185 27.8443 32.7221 20.8879 32.7221Z" fill="#C6D8AF"/>
</svg>
